<svg viewBox="0 0 399 126" xmlns="http://www.w3.org/2000/svg"><g fill="none" fill-rule="evenodd"><path d="M122.145 109.714c.901 0 1.518-.618 1.518-1.518 0-.901-.617-1.518-1.518-1.518h-1.34v3.036h1.34zm-.231-7.643c4.503 0 7.205 2.445 7.205 6.125 0 3.679-2.702 6.125-7.205 6.125h-1.056v5.147c0 .18-.18.359-.412.359h-4.606a.385.385 0 0 1-.36-.359v-17.011c0-.206.179-.386.36-.386h6.074zm16.309 3.603c.206 0 .361.154.361.36v3.346c0 .206-.155.36-.361.36h-.67c-.977 0-1.852.438-2.185 1.081v8.621a.396.396 0 0 1-.387.385h-4.529a.396.396 0 0 1-.387-.385V106.06c0-.18.181-.361.387-.361h2.907c.206 0 .335.181.412.387l.387 1.132c.771-.952 2.033-1.544 3.395-1.544h.67m5.762 7.102c0 1.673 1.029 2.805 2.547 2.805 1.519 0 2.548-1.132 2.548-2.83 0-1.673-1.029-2.805-2.548-2.805-1.518 0-2.547 1.132-2.547 2.83zm10.112-.025c0 4.477-3.036 7.462-7.565 7.462s-7.565-2.985-7.565-7.437c0-4.477 3.036-7.463 7.565-7.463s7.565 2.986 7.565 7.438zm10.238-1.467s-.387-1.158-1.776-1.158c-1.287 0-2.034.901-2.034 2.444 0 1.545.747 2.471 2.034 2.471 1.389 0 1.776-1.158 1.776-1.158v-2.599zm0 6.691c-.412.823-1.647 1.364-3.088 1.364-3.758 0-6.253-2.703-6.253-6.769 0-4.554 2.316-7.257 6.253-7.257 1.981 0 3.552.541 4.22 1.468l.462-.721c.155-.232.387-.386.593-.386h2.729c.23 0 .384.154.384.386v12.455c0 3.886-3.524 6.485-7.9 6.485-2.547 0-4.811-.592-6.072-1.621-.155-.129-.206-.309-.155-.437l1.312-3.191c.078-.181.232-.258.386-.156 1.106.902 2.805 1.442 4.529 1.442 1.622 0 2.6-.85 2.6-2.316v-.746zm15.692-12.301c.205 0 .359.154.359.36v3.346c0 .206-.154.36-.359.36h-.67c-.977 0-1.852.438-2.185 1.081v8.621a.396.396 0 0 1-.387.385h-4.529a.396.396 0 0 1-.387-.385V106.06c0-.18.181-.361.387-.361h2.907c.206 0 .335.181.412.387l.386 1.132c.772-.952 2.034-1.544 3.396-1.544h.67m8.464 9.522c-.439-.438-.875-.644-1.416-.644-.643 0-1.081.36-1.081.926 0 .567.438.927 1.081.927.541 0 .977-.206 1.416-.643v-.566zm-6.923-7.927c-.076-.18-.024-.36.129-.488 1.467-.927 3.525-1.468 5.584-1.468 4.452 0 6.511 2.342 6.511 7.463v6.666a.396.396 0 0 1-.387.385h-3.242c-.205 0-.411-.179-.411-.385l-.18-.696c-.85.902-2.549 1.467-4.427 1.467-2.959 0-4.916-1.904-4.888-4.735.024-2.521 1.981-4.194 4.888-4.194 1.493 0 2.83.54 3.346 1.364v-1.081c0-1.107-.798-1.827-1.982-1.827-1.003 0-2.239.334-3.087.823-.129.077-.284-.026-.387-.206l-1.467-3.088zm18.445-.514c.825-.901 2.318-1.442 4.041-1.442 1.853 0 3.269.747 3.835 2.033 1.004-1.286 2.651-2.033 4.453-2.033 3.447 0 5.481 2.11 5.481 5.662v8.493c0 .231-.129.359-.36.359h-4.581c-.231 0-.36-.128-.36-.359v-7.722c-.052-1.029-.489-1.62-1.263-1.62-1.465 0-1.697 1.441-1.671 1.441v7.901c0 .231-.129.359-.36.359h-4.581c-.231 0-.36-.128-.36-.359v-7.722c0-1.106-.488-1.62-1.262-1.62-1.467 0-1.697 1.441-1.697 1.441v7.901c0 .231-.129.359-.361.359h-4.581c-.232 0-.361-.128-.361-.359v-13.434c0-.232.129-.36.361-.36h2.883c.179 0 .333.077.411.257l.333.824" fill="#002645"/><g fill="#002645"><path d="M128.801 66.234c1.838 0 3.08-1.134 3.08-2.862 0-1.727-1.242-2.862-3.08-2.862h-3.185v5.724h3.185zm16.471 20.951c.27.486-.108.864-.595.864h-11.555c-.54 0-1.027-.378-1.241-.864l-5.618-11.771h-.647v11.879c0 .378-.377.756-.864.756h-9.503c-.432 0-.81-.378-.81-.756V51.601a.83.83 0 0 1 .81-.81h14.256c8.314 0 13.823 4.86 13.823 12.203 0 4.266-2.592 8.586-6.642 10.314l8.586 13.877z"/><path d="M163.468 70.608c0-2.376-1.458-3.942-3.619-3.942-2.429 0-4.049 1.566-4.049 3.942h7.668zm8.316 14.417c.108.379 0 .594-.379.811-2.861 1.889-7.019 3.023-11.177 3.023-9.558 0-15.929-6.264-15.929-15.605 0-9.396 6.264-15.659 15.659-15.659 8.965 0 14.256 5.777 14.256 15.605 0 .81-.054 1.62-.215 2.43-.056.431-.326.647-.812.647h-17.333s0 3.403 4.536 3.403c2.753 0 5.832-.648 8.262-1.782.379-.162.702.054.81.432l2.322 6.695zm20.248-6.695c-.918-.919-1.836-1.35-2.969-1.35-1.349 0-2.267.756-2.267 1.944 0 1.187.918 1.943 2.267 1.943 1.133 0 2.051-.431 2.969-1.35V78.33zm-14.524-16.632c-.163-.378-.055-.756.27-1.025 3.077-1.945 7.398-3.078 11.718-3.078 9.341 0 13.659 4.913 13.659 15.659v13.985a.83.83 0 0 1-.809.81h-6.803c-.433 0-.865-.378-.865-.81l-.377-1.457c-1.782 1.889-5.346 3.077-9.288 3.077-6.211 0-10.314-3.995-10.26-9.935.054-5.292 4.158-8.803 10.26-8.803 3.132 0 5.939 1.135 7.019 2.862v-2.267c0-2.322-1.674-3.834-4.157-3.834-2.106 0-4.698.702-6.48 1.728-.269.162-.594-.054-.81-.431l-3.077-6.481zm48.812 8.154c-.647-1.782-2.376-2.97-4.265-2.97-2.97 0-4.967 2.484-4.967 6.264 0 3.888 1.997 6.48 4.967 6.48 1.889 0 3.618-1.189 4.265-2.971v-6.803zm10.314-20.951c.432 0 .81.378.81.756v37.582a.83.83 0 0 1-.81.81h-6.102c-.377 0-.648-.324-.864-.81l-.81-1.944c-2.053 2.16-5.508 3.564-9.126 3.564-8.53 0-14.256-6.264-14.256-15.659 0-9.342 5.726-15.605 14.256-15.605 2.538 0 4.968.755 6.588 2.051v-9.989c0-.378.379-.756.811-.756h9.503zm14.848 9.449c.433 0 .81.378.81.757v28.132a.83.83 0 0 1-.81.81h-9.503a.831.831 0 0 1-.811-.81V59.107c0-.379.379-.757.811-.757h9.503zm1.135-6.317c0 3.186-2.376 5.346-5.941 5.346-3.564 0-5.938-2.16-5.938-5.346 0-3.348 2.374-5.562 5.938-5.562 3.565 0 5.941 2.214 5.941 5.562zm11.662 8.585c1.73-1.89 5.4-3.023 8.694-3.023 7.344 0 11.341 3.401 11.341 11.825v17.819c0 .432-.379.81-.811.81H274c-.433 0-.81-.378-.756-.81V71.094c0-2.16-.972-3.402-2.647-3.402-3.077 0-3.562 3.024-3.562 3.024v16.523c0 .432-.379.81-.812.81h-9.503a.83.83 0 0 1-.809-.81V59.107c0-.487.268-.757.756-.757h6.048c.377 0 .702.163.864.54l.7 1.728m41.633 9.99c0-2.376-1.459-3.942-3.618-3.942-2.43 0-4.05 1.566-4.05 3.942h7.668zm8.314 14.417c.109.379 0 .594-.377.811-2.861 1.889-7.019 3.023-11.178 3.023-9.557 0-15.929-6.264-15.929-15.605 0-9.396 6.264-15.659 15.66-15.659 8.963 0 14.256 5.777 14.256 15.605 0 .81-.055 1.62-.217 2.43-.054.431-.324.647-.809.647h-17.334s0 3.403 4.537 3.403c2.753 0 5.83-.648 8.261-1.782.377-.162.701.054.81.432l2.32 6.695zm6.75-6.371c.109-.324.433-.378.703-.217 2.106 1.243 4.373 2.215 6.209 2.215 1.135.108 1.891-.541 1.891-1.35 0-2.754-11.826-1.891-11.826-12.042 0-5.778 4.914-9.665 12.258-9.665 3.509 0 7.721 1.241 10.583 3.078.27.215.432.485.324.756l-2.754 6.371c-.108.324-.432.379-.702.215-2.107-1.349-4.374-2.213-6.209-2.213-1.135-.108-1.891.432-1.891 1.296 0 2.862 11.826 1.836 11.826 12.095 0 5.778-4.753 9.666-11.934 9.666-3.51 0-7.883-1.242-10.907-3.077-.27-.271-.432-.54-.324-.865l2.753-6.263m25.326 0c.107-.324.431-.378.701-.217 2.106 1.243 4.374 2.215 6.211 2.215 1.133.108 1.889-.541 1.889-1.35 0-2.754-11.826-1.891-11.826-12.042 0-5.778 4.914-9.665 12.258-9.665 3.51 0 7.722 1.241 10.583 3.078.27.215.433.485.325.756l-2.755 6.371c-.106.324-.431.379-.701.215-2.105-1.349-4.373-2.213-6.21-2.213-1.134-.108-1.89.432-1.89 1.296 0 2.862 11.825 1.836 11.825 12.095 0 5.778-4.75 9.666-11.933 9.666-3.509 0-7.883-1.242-10.908-3.077-.269-.271-.431-.54-.323-.865l2.754-6.263"/></g><path d="M124.752 2.366c.487 0 .811.377.811.81v35.692c0 .378-.324.756-.811.756h-9.556c-.379 0-.757-.378-.757-.756V3.176c0-.433.378-.81.757-.81h9.556m12.798 9.827c1.728-1.89 5.399-3.023 8.693-3.023 7.344 0 11.341 3.401 11.341 11.825v17.819c0 .432-.379.81-.812.81h-9.503c-.432 0-.809-.378-.756-.81V22.668c0-2.159-.971-3.401-2.646-3.401-3.077 0-3.563 3.023-3.563 3.023v16.524a.83.83 0 0 1-.811.81h-9.503a.83.83 0 0 1-.81-.81V10.681c0-.486.269-.755.756-.755h6.048c.377 0 .702.161.864.539l.702 1.728m51.675-2.267c.486 0 .702.377.594.755l-9.559 28.187c-.161.378-.647.756-1.079.756h-10.906c-.433 0-.865-.378-.974-.756l-9.611-28.187c-.162-.378.109-.755.541-.755h10.151c.487 0 .864.323 1.026.755l4.32 15.605 4.321-15.605c.106-.486.593-.755.97-.755h10.206m18.953 12.257c0-2.377-1.459-3.942-3.62-3.942-2.428 0-4.049 1.565-4.049 3.942h7.669zm8.315 14.417c.108.378 0 .594-.379.81-2.861 1.89-7.019 3.024-11.177 3.024-9.557 0-15.928-6.264-15.928-15.606 0-9.395 6.263-15.658 15.658-15.658 8.965 0 14.256 5.778 14.256 15.604 0 .81-.054 1.62-.215 2.431-.056.431-.325.647-.812.647h-17.332s0 3.403 4.535 3.403c2.753 0 5.832-.649 8.262-1.783.379-.162.702.055.81.433l2.322 6.695zm7.183-6.372c.106-.323.43-.378.7-.215 2.106 1.242 4.374 2.213 6.211 2.213 1.133.108 1.889-.54 1.889-1.349 0-2.755-11.826-1.891-11.826-12.042 0-5.778 4.914-9.665 12.258-9.665 3.51 0 7.722 1.241 10.583 3.077.27.216.433.486.325.756l-2.755 6.371c-.106.325-.431.378-.701.217-2.105-1.35-4.373-2.214-6.211-2.214-1.133-.109-1.889.432-1.889 1.296 0 2.861 11.825 1.836 11.825 12.095 0 5.778-4.751 9.666-11.933 9.666-3.509 0-7.883-1.242-10.908-3.078-.269-.27-.431-.54-.323-.864l2.755-6.264m40.765-20.302c.487 0 .812.323.812.755l-.595 5.238c-.055.432-.379.81-.811.81h-3.456v22.085a.83.83 0 0 1-.809.81h-9.503a.83.83 0 0 1-.811-.81V16.729h-3.077a.772.772 0 0 1-.756-.756v-5.238c0-.486.377-.809.756-.809h3.077V4.039c0-.378.378-.701.811-.756l9.503-.917c.432-.055.809.377.809.755v6.805h4.05m11.394 2.267c1.727-1.89 4.859-3.023 8.477-3.023 3.888 0 6.859 1.565 8.046 4.265 2.107-2.7 5.563-4.265 9.342-4.265 7.235 0 11.502 4.427 11.502 11.879v17.819c0 .486-.271.756-.756.756h-9.611c-.488 0-.756-.27-.756-.756v-16.2c-.109-2.159-1.027-3.401-2.647-3.401-3.079 0-3.564 3.023-3.509 3.023v16.578c0 .486-.271.756-.756.756h-9.612c-.487 0-.755-.27-.755-.756v-16.2c0-2.321-1.027-3.401-2.647-3.401-3.079 0-3.564 3.023-3.564 3.023v16.578c0 .486-.271.756-.756.756h-9.612c-.486 0-.756-.27-.756-.756V10.681c0-.486.27-.755.756-.755h6.047c.379 0 .702.161.865.539l.702 1.728m58.965 9.99c0-2.377-1.458-3.942-3.618-3.942-2.429 0-4.049 1.565-4.049 3.942h7.667zm8.315 14.417c.108.378 0 .594-.377.81-2.862 1.89-7.021 3.024-11.179 3.024-9.556 0-15.928-6.264-15.928-15.606 0-9.395 6.263-15.658 15.66-15.658 8.963 0 14.256 5.778 14.256 15.604 0 .81-.056 1.62-.217 2.431-.054.431-.324.647-.81.647h-17.334s0 3.403 4.536 3.403c2.754 0 5.831-.649 8.262-1.783.378-.162.701.055.81.433l2.321 6.695zm13.553-24.407c1.729-1.89 5.4-3.023 8.694-3.023 7.344 0 11.341 3.401 11.341 11.825v17.819c0 .432-.379.81-.812.81h-9.503c-.432 0-.809-.378-.755-.81V22.668c0-2.159-.972-3.401-2.647-3.401-3.077 0-3.562 3.023-3.562 3.023v16.524c0 .432-.379.81-.812.81h-9.503a.829.829 0 0 1-.809-.81V10.681c0-.486.268-.755.755-.755h6.048c.377 0 .702.161.864.539l.701 1.728m40.929-2.267c.488 0 .812.323.812.755l-.594 5.238c-.056.432-.379.81-.811.81h-3.456v22.085a.83.83 0 0 1-.809.81h-9.504a.83.83 0 0 1-.81-.81V16.729h-3.078a.77.77 0 0 1-.755-.756v-5.238c0-.486.376-.809.755-.809h3.078V4.039c0-.378.378-.701.81-.756l9.504-.917c.432-.055.809.377.809.755v6.805h4.049" fill="#002645"/><path d="M99.336 118.556L71.824 74.058c-7.702 4.211-17.432 6.531-28.873 6.528l-5.088-.002 18.096 37.96c.699 1.576 2.27 2.8 4.019 2.801l37.434.011c1.576 0 2.8-1.223 1.924-2.8" fill="#C1D60D"/><path d="M42.061.68L34.53.678l.126 31.311 8.971.003c6.121.001 10.317 4.2 10.315 10.322-.001 6.121-4.2 10.319-10.321 10.317l-8.881-.002.126 31.309 7.171.002c30.61.009 48.98-16.602 48.988-41.615C91.032 17.312 72.671.689 42.061.68" fill="#003863"/><path d="M35.228.641l.804 118.233c0 1.224-1.051 2.448-2.627 2.448l-30.958-.009C1.223 121.312 0 120.088 0 118.864L.033 3.244C.034 1.845 1.259.621 2.483.621l32.745.02" fill="#00C0DE"/></g></svg>